<svg width="40px" height="40px" viewBox="0 0 40 40" version="1.1" xmlns="http://www.w3.org/2000/svg" xmlns:xlink="http://www.w3.org/1999/xlink">
  <path d="M29.8,19.2 L32.2,19.2 C32.6418278,19.2 33,19.5581722 33,20 C33,20.4418278 32.6418278,20.8 32.2,20.8 L29.8,20.8 L29.8,23.2 C29.8,23.6418278 29.4418278,24 29,24 C28.5581722,24 28.2,23.6418278 28.2,23.2 L28.2,20.8 L25.8,20.8 C25.3581722,20.8 25,20.4418278 25,20 C25,19.5581722 25.3581722,19.2 25.8,19.2 L28.2,19.2 L28.2,16.8 C28.2,16.3581722 28.5581722,16 29,16 C29.4418278,16 29.8,16.3581722 29.8,16.8 L29.8,19.2 Z M27,18.2 L25.8,18.2 C24.8058875,18.2 24,19.0058875 24,20 C24,20.9941125 24.8058875,21.8 25.8,21.8 L27,21.8 L27,22.1950646 C27,23.1919029 26.1919029,24 25.1950646,24 L24,24 L24,28 L19.3478261,23.9090909 L12.8049354,23.9090909 C11.8080971,23.9090909 11,23.1009938 11,22.1041555 L11,14.8049354 C11,13.8080971 11.8080971,13 12.8049354,13 L25.1950646,13 C26.1919029,13 27,13.8080971 27,14.8049354 L27,18.2 Z"></path>
</svg>
