<?xml version="1.0" encoding="UTF-8"?>
<svg width="40px" height="40px" viewBox="0 0 40 40" version="1.1" xmlns="http://www.w3.org/2000/svg" xmlns:xlink="http://www.w3.org/1999/xlink">
  <path d="M28.2300315,5.00001879 C26.4991412,5.00002631 24.7716698,5.65260893 23.4517119,6.9728958 L18.4033447,12.0225215 C18.3911868,12.0338645 18.3794086,12.0456081 18.3680296,12.0577326 C18.1834743,12.254927 18.118114,12.5356258 18.1965692,12.7940923 C18.2750244,13.0525589 18.4853758,13.2495261 18.7483863,13.3107982 C19.0113967,13.3720704 19.2871085,13.2883388 19.4716637,13.0911444 L24.5199934,8.04151873 C26.5896455,5.97138827 29.8820263,5.97138827 31.9516784,8.04151873 C34.0212179,10.1116454 34.0212554,13.4049145 31.9516784,15.4750375 L26.3750125,21.0648369 C24.3054355,23.1349673 21.0011828,23.1349673 18.9315683,21.0648369 C18.7510394,20.8406872 18.458389,20.7393427 18.1779455,20.8038582 C17.8975021,20.8683737 17.6785198,21.0874183 17.6140304,21.367934 C17.549541,21.6484496 17.6508706,21.9411694 17.8749708,22.1217353 C20.5148865,24.762309 24.8034534,24.7623466 27.4433691,22.1217353 L33.0200351,16.5436792 C35.6599883,13.9030979 35.6599883,9.61347331 33.0200351,6.97287701 C31.7001148,5.65259014 29.9608842,4.99999248 28.2299563,5 L28.2300315,5.00001879 Z M14.7680036,5.7515722 C14.3530138,5.7515722 14.0166187,6.08805107 14.0166187,6.50314439 L14.0166187,11.7641498 C14.0166187,12.1792431 14.3530138,12.515722 14.7680036,12.515722 C15.1829935,12.515722 15.5193885,12.1792431 15.5193885,11.7641498 L15.5193885,6.50314439 C15.5193885,6.08805107 15.1829935,5.7515722 14.7680036,5.7515722 Z M7.40917561,7.41037228 C7.11573345,7.70381444 7.11579275,8.17960813 7.40930805,8.47312343 L11.1294006,12.193216 C11.4229159,12.4867313 11.8987096,12.4867906 12.1921518,12.1933484 C12.4855939,11.8999063 12.4855346,11.4241126 12.1920193,11.1305973 L8.47192676,7.41050472 C8.17841146,7.11698942 7.70261777,7.11693013 7.40917561,7.41037228 Z M27.6965678,27.7028216 C27.4031256,27.9962637 27.4031849,28.4720574 27.6967002,28.7655727 L31.4167928,32.4856653 C31.7103081,32.7791806 32.1861018,32.7792399 32.479544,32.4857977 C32.7729861,32.1923556 32.7729268,31.7165619 32.4794115,31.4230466 L28.7593189,27.702954 C28.4658036,27.4094387 27.9900099,27.4093794 27.6965678,27.7028216 Z M6.47510946,13.9836552 C6.06011959,13.9836552 5.72372457,14.3201341 5.72372457,14.7352274 C5.72372457,15.1503207 6.06011959,15.4867996 6.47510946,15.4867996 L11.7348037,15.4867996 C12.1497936,15.4867996 12.4861886,15.1503207 12.4861886,14.7352274 C12.4861886,14.3201341 12.1497936,13.9836552 11.7348037,13.9836552 L6.47510946,13.9836552 Z M17.3467097,15.8860723 C15.6157819,15.8860723 13.8765888,16.550402 12.556631,17.8706926 L6.97996497,23.4487487 C4.34001168,26.0893601 4.34001168,30.3789959 6.97996497,33.0195697 C9.61988067,35.6601434 13.9084475,35.6601434 16.5483632,33.0195697 L21.5967305,27.969944 C21.7876406,27.7790582 21.8622215,27.5007889 21.7923731,27.2399805 C21.7225246,26.9791721 21.5188613,26.775458 21.2581179,26.7055921 C20.9973745,26.6357263 20.7191746,26.7103258 20.5283363,26.9012835 L15.4800066,31.9509092 C13.4103545,34.0210396 10.1179737,34.0210396 8.04832159,31.9509092 C5.97878217,29.8807787 5.9787446,26.5875397 8.04832159,24.5174092 L13.6249876,18.927591 C15.6945646,16.8574756 18.9988548,16.8574568 21.0684318,18.927591 C21.2489606,19.1517407 21.5416111,19.2530852 21.8220545,19.1885697 C22.1024979,19.1240542 22.3214802,18.9050096 22.3859696,18.6244939 C22.4504591,18.3439783 22.3491294,18.0512585 22.1250292,17.8706926 C20.8051089,16.5504058 19.0776375,15.8860723 17.3467097,15.8860723 Z M28.2652714,24.5056471 C27.8502816,24.5056471 27.5138865,24.842126 27.5138865,25.2572193 C27.5138865,25.6723126 27.8502816,26.0087915 28.2652714,26.0087915 L33.5249657,26.0087915 C33.9399556,26.0087915 34.2763506,25.6723126 34.2763506,25.2572193 C34.2763506,24.842126 33.9399556,24.5056471 33.5249657,24.5056471 L28.2652714,24.5056471 Z M25.2597319,27.5119359 C24.844742,27.5119359 24.508347,27.8484148 24.508347,28.2635081 L24.508347,33.5245135 C24.508347,33.9396068 24.844742,34.2760857 25.2597319,34.2760857 C25.6747217,34.2760857 26.0111167,33.9396068 26.0111167,33.5245135 L26.0111167,28.2635081 C26.0111167,27.8484148 25.6747217,27.5119359 25.2597319,27.5119359 Z"></path>
</svg>
