<svg viewBox="0 0 40 40" version="1.1" xmlns="http://www.w3.org/2000/svg" xmlns:xlink="http://www.w3.org/1999/xlink">
  <g id="shape" transform="translate(13.000000, 12.000000)">
    <path d="M12,6.35106344 L6.88501289,1 L2.5,1 C1.67157288,1 1,1.67157288 1,2.5 L1,14.5 C1,15.3284271 1.67157288,16 2.5,16 L10.5,16 C11.3284271,16 12,15.3284271 12,14.5 L12,6.35106344 Z M2.5,0 L7.3125,0 L13,5.95 L13,14.5 C13,15.8807119 11.8807119,17 10.5,17 L2.5,17 C1.11928813,17 1.69088438e-16,15.8807119 0,14.5 L0,2.5 C-1.69088438e-16,1.11928813 1.11928813,1.14181108e-15 2.5,0 Z"></path>
    <path d="M12,6.95 L6.3125,6.95 L6.3125,1 L2.5,1 C1.67157288,1 1,1.67157288 1,2.5 L1,14.5 C1,15.3284271 1.67157288,16 2.5,16 L10.5,16 C11.3284271,16 12,15.3284271 12,14.5 L12,6.95 Z M2.5,4.59271747e-16 L7.3125,2.19824159e-15 L7.3125,5.95 L13,5.95 L13,14.5 C13,15.8807119 11.8807119,17 10.5,17 L2.5,17 C1.11928813,17 1.05726686e-15,15.8807119 8.8817842e-16,14.5 L0,2.5 C-1.69088438e-16,1.11928813 1.11928813,2.53632657e-16 2.5,4.59271747e-16 Z"></path>
    <path d="M3.5,9 L9.5,9 C9.77614237,9 10,9.22385763 10,9.5 C10,9.77614237 9.77614237,10 9.5,10 L3.5,10 C3.22385763,10 3,9.77614237 3,9.5 C3,9.22385763 3.22385763,9 3.5,9 Z M3.5,11 L9.5,11 C9.77614237,11 10,11.2238576 10,11.5 C10,11.7761424 9.77614237,12 9.5,12 L3.5,12 C3.22385763,12 3,11.7761424 3,11.5 C3,11.2238576 3.22385763,11 3.5,11 Z M3.5,13 L9.5,13 C9.77614237,13 10,13.2238576 10,13.5 C10,13.7761424 9.77614237,14 9.5,14 L3.5,14 C3.22385763,14 3,13.7761424 3,13.5 C3,13.2238576 3.22385763,13 3.5,13 Z"></path>
  </g>
</svg>
