<?xml version="1.0" encoding="UTF-8"?>
<svg width="40px" height="40px" viewBox="0 0 40 40" version="1.1" xmlns="http://www.w3.org/2000/svg" xmlns:xlink="http://www.w3.org/1999/xlink">
    <g stroke="none" stroke-width="1" fill-rule="evenodd">
        <g id="Group-3" transform="translate(1.000000, 2.750000)">
            <path d="M0,22.125 L9.01120103,12.9371087 C9.3638204,12.5775753 9.84624342,12.375 10.3498353,12.375 L27.9001647,12.375 C28.4037566,12.375 28.8861796,12.5775753 29.238799,12.9371087 L38.25,22.125 L38.25,31.25 C38.25,32.9068542 36.6568542,34.5 35,34.5 L3.25,34.5 C1.59314575,34.5 2.02906125e-16,32.9068542 0,31.25 L0,22.125 Z M2.5625,21.375 L9.98706897,13.875 L28.262931,13.875 L35.6875,21.375 L26.1688218,21.375 L26.1688218,22.875 C26.1688218,24.738961 24.6346252,26.25 22.7420977,26.25 L15.5079023,26.25 C13.6153748,26.25 12.0811782,24.738961 12.0811782,22.875 L12.0811782,21.375 L2.5625,21.375 Z M1.59322034,22.875 L10.5811782,22.875 C10.5811782,25.5725378 12.7920114,27.75 15.5079023,27.75 L22.7420977,27.75 C25.4579886,27.75 27.6688218,25.5725378 27.6688218,22.875 L36.6567797,22.875 L36.6567797,30.6567797 C36.6567797,32.0889757 35.6755255,33 34.1566966,33 L4.09330342,33 C2.57447447,33 1.59322034,32.0889757 1.59322034,30.6567797 L1.59322034,22.875 Z M19.875,8.625 C19.875,9.03921356 19.5392136,9.375 19.125,9.375 C18.7107864,9.375 18.375,9.03921356 18.375,8.625 L18.375,0.75 C18.375,0.335786438 18.7107864,2.84217094e-14 19.125,2.84217094e-14 C19.5392136,2.84217094e-14 19.875,0.335786438 19.875,0.75 L19.875,8.625 Z M24.7246305,9.30096631 C24.6174242,9.70106589 24.2061714,9.93850276 23.8060719,9.8312964 C23.4059723,9.72409004 23.1685354,9.31283732 23.2757418,8.91273774 L25.3139418,1.30607186 C25.4211481,0.905972284 25.8324008,0.668535417 26.2325004,0.775741776 C26.6326,0.882948134 26.8700369,1.29420085 26.7628305,1.69430043 L24.7246305,9.30096631 Z M15.1378305,8.91273774 C15.2450369,9.31283732 15.0076,9.72409004 14.6075004,9.8312964 C14.2074008,9.93850276 13.7961481,9.70106589 13.6889418,9.30096631 L11.6507418,1.69430043 C11.5435354,1.29420085 11.7809723,0.882948134 12.1810719,0.775741776 C12.5811714,0.668535417 12.9924242,0.905972284 13.0996305,1.30607186 L15.1378305,8.91273774 Z" id="Combined-Shape"></path>
        </g>
    </g>
</svg>
