<?xml version="1.0" encoding="UTF-8"?>
<svg width="40px" height="40px" viewBox="0 0 40 40" version="1.1" xmlns="http://www.w3.org/2000/svg" xmlns:xlink="http://www.w3.org/1999/xlink">
    <g id="exclamation_ico">
        <path d="M20,32 C13.372583,32 8,26.627417 8,20 C8,13.372583 13.372583,8 20,8 C26.627417,8 32,13.372583 32,20 C32,26.627417 26.627417,32 20,32 Z M18.4698661,14 L18.6875,22.1026786 L20.922433,22.1026786 L21.1484375,14 L18.4698661,14 Z M19.8091518,26.3297991 C20.7550223,26.3297991 21.3325893,25.7857143 21.3325893,24.906808 C21.3325893,24.0195313 20.7550223,23.4754464 19.8091518,23.4754464 C18.8716518,23.4754464 18.2857143,24.0195313 18.2857143,24.906808 C18.2857143,25.7857143 18.8716518,26.3297991 19.8091518,26.3297991 Z"></path>
    </g>
</svg>
