<svg width="40px" height="40px" viewBox="0 0 40 40" version="1.1" xmlns="http://www.w3.org/2000/svg" xmlns:xlink="http://www.w3.org/1999/xlink">
  <path d="M21.6868959,20 C21.6868959,20.9771997 20.9315435,21.7691468 20.0001445,21.7691468 C19.0684565,21.7691468 18.3131041,20.9771997 18.3131041,20 C18.3131041,19.0228003 19.0684565,18.2308532 20.0001445,18.2308532 C20.9315435,18.2308532 21.6868959,19.0228003 21.6868959,20 M19.9998555,23.3500091 C18.2359212,23.3500091 16.8058682,21.8501001 16.8058682,20 C16.8058682,18.1498999 18.2359212,16.6499909 19.9998555,16.6499909 C21.7640788,16.6499909 23.1941318,18.1498999 23.1941318,20 C23.1941318,21.8501001 21.7640788,23.3500091 19.9998555,23.3500091 M20.0001445,15 C15.5816365,15 12,19.9754411 12,19.9754411 C12,19.9754411 15.5816365,25 20.0001445,25 C24.4183635,25 28,19.9754411 28,19.9754411 C28,19.9754411 24.4183635,15 20.0001445,15"></path>
</svg>
