<svg viewBox="0 0 40 40" version="1.1" xmlns="http://www.w3.org/2000/svg" xmlns:xlink="http://www.w3.org/1999/xlink">
  <path d="M27,15.0500091 C28.1411202,15.2816442 29,16.290521 29,17.5 C29,18.709479 28.1411202,19.7183558 27,19.9499909 L27,27.5 C27,27.7761424 26.7761424,28 26.5,28 C26.2238576,28 26,27.7761424 26,27.5 L26,19.9499909 C24.8588798,19.7183558 24,18.709479 24,17.5 C24,16.290521 24.8588798,15.2816442 26,15.0500091 L26,12.5 C26,12.2238576 26.2238576,12 26.5,12 C26.7761424,12 27,12.2238576 27,12.5 L27,15.0500091 Z M21,22.0500091 C22.1411202,22.2816442 23,23.290521 23,24.5 C23,25.709479 22.1411202,26.7183558 21,26.9499909 L21,27.5 C21,27.7761424 20.7761424,28 20.5,28 C20.2238576,28 20,27.7761424 20,27.5 L20,26.9499909 C18.8588798,26.7183558 18,25.709479 18,24.5 C18,23.290521 18.8588798,22.2816442 20,22.0500091 L20,12.5 C20,12.2238576 20.2238576,12 20.5,12 C20.7761424,12 21,12.2238576 21,12.5 L21,22.0500091 Z M15,13.0500091 C16.1411202,13.2816442 17,14.290521 17,15.5 C17,16.709479 16.1411202,17.7183558 15,17.9499909 L15,27.5 C15,27.7761424 14.7761424,28 14.5,28 C14.2238576,28 14,27.7761424 14,27.5 L14,17.9499909 C12.8588798,17.7183558 12,16.709479 12,15.5 C12,14.290521 12.8588798,13.2816442 14,13.0500091 L14,12.5 C14,12.2238576 14.2238576,12 14.5,12 C14.7761424,12 15,12.2238576 15,12.5 L15,13.0500091 Z"></path>
</svg>
