<?xml version="1.0" encoding="UTF-8"?>
<svg width="40px" height="40px" viewBox="0 0 40 40" version="1.1" xmlns="http://www.w3.org/2000/svg" xmlns:xlink="http://www.w3.org/1999/xlink">
  <path d="M13,13 L27,13 C27.5522847,13 28,13.4477153 28,14 C28,14.5522847 27.5522847,15 27,15 L13,15 C12.4477153,15 12,14.5522847 12,14 C12,13.4477153 12.4477153,13 13,13 Z M13,19 L27,19 C27.5522847,19 28,19.4477153 28,20 C28,20.5522847 27.5522847,21 27,21 L13,21 C12.4477153,21 12,20.5522847 12,20 C12,19.4477153 12.4477153,19 13,19 Z M13,25 L27,25 C27.5522847,25 28,25.4477153 28,26 C28,26.5522847 27.5522847,27 27,27 L13,27 C12.4477153,27 12,26.5522847 12,26 C12,25.4477153 12.4477153,25 13,25 Z"></path>
</svg>
