<svg viewBox="0 0 40 40" version="1.1" xmlns="http://www.w3.org/2000/svg" xmlns:xlink="http://www.w3.org/1999/xlink">
  <path d="M14,12 L26,12 C27.1045695,12 28,12.8954305 28,14 L28,26 C28,27.1045695 27.1045695,28 26,28 L14,28 C12.8954305,28 12,27.1045695 12,26 L12,14 C12,12.8954305 12.8954305,12 14,12 Z M14,13 C13.4477153,13 13,13.4477153 13,14 L13,26 C13,26.5522847 13.4477153,27 14,27 L26,27 C26.5522847,27 27,26.5522847 27,26 L27,14 C27,13.4477153 26.5522847,13 26,13 L14,13 Z M13,24 L16.5,21 L19,23 L23.5,19 L27,21.5 L27,22.5 L23.5,20 L19,24 L16.5,22 L13,25 L13,24 Z M16.5,18 C17.3284271,18 18,17.3284271 18,16.5 C18,15.6715729 17.3284271,15 16.5,15 C15.6715729,15 15,15.6715729 15,16.5 C15,17.3284271 15.6715729,18 16.5,18 Z"></path>
</svg>
