<svg width="40px" height="40px" viewBox="0 0 40 40" version="1.1" xmlns="http://www.w3.org/2000/svg" xmlns:xlink="http://www.w3.org/1999/xlink">
  <path d="M26.2509244,18.1264108 C26.2509244,13.6343115 22.6170372,10 18.1254622,10 C13.6338873,10 10,13.6343115 10,18.1264108 C10,22.6185102 13.6338873,26.2528217 18.1254622,26.2528217 C20.0439741,26.2528217 21.8044909,25.5756208 23.2038761,24.469526 L28.4628558,29.7291196 C28.6434216,29.9097065 28.8691289,30 29.0948362,30 C29.3205435,30 29.5462508,29.9097065 29.7268166,29.7291196 C30.0879482,29.3679458 30.0879482,28.8036117 29.7268166,28.4424379 L24.4678369,23.2054176 C25.5738026,21.8058691 26.2509244,20.0451467 26.2509244,18.1264108 Z M18.1254622,24.4469526 C14.64957,24.4469526 11.8056583,21.6027088 11.8056583,18.1264108 C11.8056583,14.6501129 14.64957,11.8058691 18.1254622,11.8058691 C21.6013544,11.8058691 24.4452662,14.6501129 24.4452662,18.1264108 C24.4452662,21.6027088 21.6013544,24.4469526 18.1254622,24.4469526 Z" id="Shape" fill="#000000" fill-rule="nonzero"></path>
</svg>
