<svg width="40px" height="40px" viewBox="0 0 40 40" version="1.1" xmlns="http://www.w3.org/2000/svg" xmlns:xlink="http://www.w3.org/1999/xlink">
  <path d="M27.3142857,14.2215989 L23.4057143,14.2215989 L23.2228571,12.8527349 C23.2,12.3814867 22.7885714,12 22.3085714,12 L17.6914286,12 C17.2114286,12 16.8,12.3814867 16.7771429,12.8527349 L16.5942857,14.2215989 L12.6857143,14.2215989 C12.2971429,14.2215989 12,14.513324 12,14.8948107 C12,15.2762973 12.2971429,15.5680224 12.6857143,15.5680224 L13.5542857,15.5680224 L15.2914286,27.1697055 C15.3142857,27.6409537 15.7257143,28 16.2057143,28 L23.7714286,28 C24.2514286,28 24.64,27.6409537 24.6857143,27.1697055 L26.4228571,15.5680224 L27.3142857,15.5680224 C27.7028571,15.5680224 28,15.2762973 28,14.8948107 C28,14.513324 27.7028571,14.2215989 27.3142857,14.2215989 Z M18.08,13.368864 L21.8971429,13.368864 L22.0114286,14.2215989 L17.9885714,14.2215989 L18.08,13.368864 Z M23.3828571,26.6535764 L16.6171429,26.6535764 L14.9485714,15.5680224 L25.0514286,15.5680224 L23.3828571,26.6535764 Z"></path>
</svg>
