<svg width="40px" height="40px" viewBox="0 0 40 40" version="1.1" xmlns="http://www.w3.org/2000/svg" xmlns:xlink="http://www.w3.org/1999/xlink">
  <path d="M11.3846154,11 L13.4615385,11 C14.2262404,11 14.8461538,11.6199134 14.8461538,12.3846154 C14.8461538,13.1493173 14.2262404,13.7692308 13.4615385,13.7692308 L11.3846154,13.7692308 C10.6199134,13.7692308 10,13.1493173 10,12.3846154 C10,11.6199134 10.6199134,11 11.3846154,11 Z M17.6153846,11 L29.3846154,11 C30.1493173,11 30.7692308,11.6199134 30.7692308,12.3846154 C30.7692308,13.1493173 30.1493173,13.7692308 29.3846154,13.7692308 L17.6153846,13.7692308 C16.8506827,13.7692308 16.2307692,13.1493173 16.2307692,12.3846154 C16.2307692,11.6199134 16.8506827,11 17.6153846,11 Z M17.6153846,18.6153846 L29.3846154,18.6153846 C30.1493173,18.6153846 30.7692308,19.235298 30.7692308,20 C30.7692308,20.764702 30.1493173,21.3846154 29.3846154,21.3846154 L17.6153846,21.3846154 C16.8506827,21.3846154 16.2307692,20.764702 16.2307692,20 C16.2307692,19.235298 16.8506827,18.6153846 17.6153846,18.6153846 Z M17.6153846,26.2307692 L29.3846154,26.2307692 C30.1493173,26.2307692 30.7692308,26.8506827 30.7692308,27.6153846 C30.7692308,28.3800866 30.1493173,29 29.3846154,29 L17.6153846,29 C16.8506827,29 16.2307692,28.3800866 16.2307692,27.6153846 C16.2307692,26.8506827 16.8506827,26.2307692 17.6153846,26.2307692 Z M11.3846154,18.6153846 L13.4615385,18.6153846 C14.2262404,18.6153846 14.8461538,19.235298 14.8461538,20 C14.8461538,20.764702 14.2262404,21.3846154 13.4615385,21.3846154 L11.3846154,21.3846154 C10.6199134,21.3846154 10,20.764702 10,20 C10,19.235298 10.6199134,18.6153846 11.3846154,18.6153846 Z M11.3846154,26.2307692 L13.4615385,26.2307692 C14.2262404,26.2307692 14.8461538,26.8506827 14.8461538,27.6153846 C14.8461538,28.3800866 14.2262404,29 13.4615385,29 L11.3846154,29 C10.6199134,29 10,28.3800866 10,27.6153846 C10,26.8506827 10.6199134,26.2307692 11.3846154,26.2307692 Z"></path>
</svg>
