<svg width="40px" height="40px" viewBox="0 0 40 40" version="1.1" xmlns="http://www.w3.org/2000/svg" xmlns:xlink="http://www.w3.org/1999/xlink">
  <path d="M14.6428571,11.4285714 C12.8676562,11.4285714 11.4285714,12.8676562 11.4285714,14.6428571 C11.4285714,16.4180581 12.8676562,17.8571429 14.6428571,17.8571429 C16.4180581,17.8571429 17.8571429,16.4180581 17.8571429,14.6428571 C17.8571429,12.8676562 16.4180581,11.4285714 14.6428571,11.4285714 Z M14.6428571,10 C17.2070363,10 19.2857143,12.0786779 19.2857143,14.6428571 C19.2857143,17.2070363 17.2070363,19.2857143 14.6428571,19.2857143 C12.0786779,19.2857143 10,17.2070363 10,14.6428571 C10,12.0786779 12.0786779,10 14.6428571,10 Z M14.6428571,20.7142857 C17.2070363,20.7142857 19.2857143,22.7929637 19.2857143,25.3571429 C19.2857143,27.9213221 17.2070363,30 14.6428571,30 C12.0786779,30 10,27.9213221 10,25.3571429 C10,22.7929637 12.0786779,20.7142857 14.6428571,20.7142857 Z M14.6428571,22.1428571 C12.8676562,22.1428571 11.4285714,23.5819419 11.4285714,25.3571429 C11.4285714,27.1323438 12.8676562,28.5714286 14.6428571,28.5714286 C16.4180581,28.5714286 17.8571429,27.1323438 17.8571429,25.3571429 C17.8571429,23.5819419 16.4180581,22.1428571 14.6428571,22.1428571 Z M25.3571429,10 C27.9213221,10 30,12.0786779 30,14.6428571 C30,17.2070363 27.9213221,19.2857143 25.3571429,19.2857143 C22.7929637,19.2857143 20.7142857,17.2070363 20.7142857,14.6428571 C20.7142857,12.0786779 22.7929637,10 25.3571429,10 Z M25.3571429,11.4285714 C23.5819419,11.4285714 22.1428571,12.8676562 22.1428571,14.6428571 C22.1428571,16.4180581 23.5819419,17.8571429 25.3571429,17.8571429 C27.1323438,17.8571429 28.5714286,16.4180581 28.5714286,14.6428571 C28.5714286,12.8676562 27.1323438,11.4285714 25.3571429,11.4285714 Z M25.3571429,20.7142857 C27.9213221,20.7142857 30,22.7929637 30,25.3571429 C30,27.9213221 27.9213221,30 25.3571429,30 C22.7929637,30 20.7142857,27.9213221 20.7142857,25.3571429 C20.7142857,22.7929637 22.7929637,20.7142857 25.3571429,20.7142857 Z M25.3571429,22.1428571 C23.5819419,22.1428571 22.1428571,23.5819419 22.1428571,25.3571429 C22.1428571,27.1323438 23.5819419,28.5714286 25.3571429,28.5714286 C27.1323438,28.5714286 28.5714286,27.1323438 28.5714286,25.3571429 C28.5714286,23.5819419 27.1323438,22.1428571 25.3571429,22.1428571 Z"></path>
</svg>
