<?xml version="1.0" encoding="UTF-8"?>
<svg width="40px" height="40px" viewBox="0 0 40 40" version="1.1" xmlns="http://www.w3.org/2000/svg" xmlns:xlink="http://www.w3.org/1999/xlink">
  <g transform="translate(8, 8)">
    <path d="M13.2543509,3.13153436 L20.9911306,16.3804154 C21.5809001,17.3903687 21.2402739,18.6872002 20.2303206,19.2769697 C19.9062553,19.4662099 19.537722,19.5659346 19.1624485,19.5659346 L3.68888902,19.5659346 C2.51934484,19.5659346 1.57124196,18.6178317 1.57124196,17.4482876 C1.57124196,17.073014 1.67096664,16.7044808 1.86020692,16.3804154 L9.59698667,3.13153436 C10.1867562,2.12158113 11.4835876,1.78095489 12.4935409,2.37072438 C12.8084155,2.55459768 13.0704776,2.81665976 13.2543509,3.13153436 Z"></path>
    <path d="M11.2900443,7.85714286 L11.2900443,7.85714286 C11.7882305,7.85714286 12.1920903,8.26100258 12.1920903,8.7591888 C12.1920903,8.76747496 12.1919761,8.77576072 12.1917478,8.78404373 L12.0821412,12.7604245 C12.0702738,13.1909564 11.7178421,13.5338074 11.2871467,13.5338074 L11.2871467,13.5338074 C10.8565757,13.5338074 10.504366,13.1908224 10.4929411,12.7604031 L10.3873953,8.78406931 C10.3741628,8.28555 10.7675655,7.87069324 11.2660849,7.85746079 C11.2740696,7.85724884 11.2820568,7.85714286 11.2900443,7.85714286 Z M11.2900443,16.4952904 C10.6409673,16.4952904 10.2352941,16.1141094 10.2352941,15.4983555 C10.2352941,14.8767373 10.6409673,14.4955563 11.2900443,14.4955563 C11.9449167,14.4955563 12.3447945,14.8767373 12.3447945,15.4983555 C12.3447945,16.1141094 11.9449167,16.4952904 11.2900443,16.4952904 Z" fill="#FFFFFF"></path>
  </g>
</svg>
